<?xml version="1.0" encoding="iso-8859-1"?>
<!-- Uploaded to: SVG Repo, www.svgrepo.com, Generator: SVG Repo Mixer Tools -->
<svg height="800px" width="800px" version="1.1" id="Layer_1" xmlns="http://www.w3.org/2000/svg" xmlns:xlink="http://www.w3.org/1999/xlink" 
	 viewBox="0 0 392.598 392.598" xml:space="preserve">
<path style="fill:#FFFFFF;" d="M337.463,130.069c0-59.733-48.614-108.283-108.283-108.283c-59.733,0-108.283,48.614-108.283,108.283
	c0,7.499,2.069,21.075,10.667,44.671l22.95-22.949c-8.145-27.216-0.776-56.695,19.523-77.059
	c14.675-14.675,40.792-28.962,75.96-19.782c3.814,1.034,6.659,4.008,7.564,7.758c1.034,3.814-0.065,7.758-2.844,10.408l-31.935,32
	l4.267,26.505l26.505,4.267l32-32c2.715-2.715,6.723-3.814,10.408-2.844c3.814,1.034,6.723,3.879,7.758,7.564
	c7.564,27.022,0.711,56.954-19.846,75.96c-34.263,31.677-69.883,21.657-77.059,19.523l-42.731,42.731l65.034,114.295
	C266.223,301.511,337.463,177.196,337.463,130.069z"/>
<path style="fill:#56ACE0;" d="M229.116,43.572c-47.709,0-86.497,38.788-86.497,86.497c0,4.655,1.487,18.941,14.998,51.782
	l27.539,52.752h54.949c6.012,0,10.925,4.848,10.925,10.925c0,6.012-4.848,10.925-10.925,10.925h-43.507l13.059,25.083h13.899
	c6.012,0,10.925,4.848,10.925,10.925c0,6.012-4.848,10.925-10.925,10.925h-2.521l8.275,15.838
	c42.02-70.853,86.368-157.479,86.368-189.091C315.677,82.36,276.889,43.572,229.116,43.572z"/>
<path style="fill:#194F82;" d="M229.18,0C157.487,0,99.112,58.311,99.112,130.069c0,14.933,5.107,35.168,15.515,61.608
	l-70.271,70.271c-11.766,10.99-17.325,34.263,0,52.299c14.352,15.515,40.727,13.123,52.299,0l51.2-51.2
	c33.099,63.612,71.693,123.863,72.081,124.509c2.004,3.103,5.495,5.042,9.18,5.042s7.176-1.875,9.18-5.042
	c4.913-7.758,120.954-189.22,120.954-257.487C359.249,58.311,300.873,0,229.18,0z M81.204,298.861
	c-5.689,5.689-15.774,5.689-21.463,0c-5.947-5.948-6.077-15.709,0-21.463l115.071-115.071c3.103-3.103,4.008-7.758,2.392-11.83
	c-8.404-20.881-3.556-44.606,12.283-60.444c9.115-9.115,20.816-14.675,33.487-15.968l-19.459,19.459
	c-2.457,2.457-3.62,5.947-3.103,9.438l6.335,39.822c0.776,4.655,4.396,8.275,9.051,9.051l39.822,6.4
	c3.491,0.517,6.982-0.646,9.438-3.103l19.459-19.459c-1.422,12.412-6.853,24.372-15.968,33.487
	c-10.537,10.537-32.97,22.885-60.444,12.283c-4.073-1.552-8.727-0.711-11.83,2.392L81.204,298.861z M229.18,361.18l-65.034-114.295
	l42.731-42.731c7.176,2.133,42.796,12.154,77.059-19.523c20.558-19.071,27.41-48.937,19.846-75.96
	c-1.099-3.685-4.008-6.659-7.758-7.564c-3.685-1.034-7.758,0.065-10.408,2.844l-32.129,31.935l-26.505-4.267l-4.267-26.505l32-32
	c2.715-2.715,3.814-6.723,2.844-10.408c-1.034-3.685-3.879-6.788-7.564-7.758c-35.168-9.18-61.285,5.172-75.96,19.782
	c-20.299,20.299-27.669,49.907-19.523,77.059l-22.949,22.949c-8.598-23.467-10.667-37.172-10.667-44.671
	c0-59.733,48.614-108.283,108.283-108.283c59.733,0,108.283,48.614,108.283,108.283C337.463,177.196,266.223,301.511,229.18,361.18z
	"/>
<path style="fill:#FFC10D;" d="M196.275,183.855c3.103-3.103,7.758-3.943,11.83-2.392c27.41,10.602,49.842-1.745,60.444-12.283
	c9.115-9.115,14.61-20.945,15.968-33.487l-19.459,19.459c-2.457,2.457-6.012,3.62-9.438,3.103l-39.822-6.4
	c-4.655-0.776-8.275-4.396-9.051-9.051l-6.335-39.822c-0.517-3.491,0.646-6.982,3.103-9.438l19.459-19.459
	c-12.671,1.293-24.372,6.853-33.487,15.968c-15.838,15.838-20.687,39.564-12.283,60.444c1.616,4.073,0.711,8.727-2.392,11.83
	L59.677,277.398c-6.077,5.818-5.947,15.515,0,21.463c5.689,5.689,15.774,5.689,21.463,0L196.275,183.855z"/>
</svg>